HIERARCHY
ROOT Hips
{
	OFFSET 0.000000 0.000000 0.000000 
	CHANNELS 6 Xposition Yposition Zposition Yrotation Zrotation Xrotation 
	JOINT Lumbar
	{
		OFFSET 0.000000 0.000000 0.000000 
		CHANNELS 3 Zrotation Xrotation Yrotation
		JOINT Neck
		{
			OFFSET 0.000000 0.445665 0.000000 
			CHANNELS 3 Zrotation Xrotation Yrotation
			End Site
			{
				OFFSET 0.000000 0.227535 0.000000 
			}
		}
		JOINT RightShoulder
		{
			OFFSET 0.019635 0.377685 0.194865 
			CHANNELS 3 Zrotation Xrotation Yrotation
			JOINT RightElbow
			{
				OFFSET 0.000000 -0.243375 0.000000 
				CHANNELS 2 Zrotation Yrotation
				JOINT RightWrist
				{
					OFFSET 0.000000 -0.264825 0.000000 
					CHANNELS 2 Zrotation Xrotation
					End Site
					{
						OFFSET 0.006600 -0.176220 0.000990 
					}
				}
			}
		}
		JOINT LeftShoulder
		{
			OFFSET 0.019635 0.377685 -0.194865 
			CHANNELS 3 Zrotation Xrotation Yrotation
			JOINT LeftElbow
			{
				OFFSET 0.000000 -0.243375 0.000000 
				CHANNELS 2 Zrotation Yrotation
				JOINT LeftWrist
				{
					OFFSET 0.000000 -0.264825 0.000000 
					CHANNELS 2 Zrotation Xrotation
					End Site
					{
						OFFSET 0.006600 -0.176220 -0.000990 
					}
				}
			}
		}
	}
	JOINT RightHip
	{
		OFFSET 0.052140 -0.069960 0.075570 
		CHANNELS 3 Zrotation Xrotation Yrotation
		JOINT RightKnee
		{
			OFFSET 0.000000 -0.402270 0.000000 
			CHANNELS 1 Zrotation
			JOINT RightAnkle
			{
				OFFSET 0.000000 -0.404085 0.000000 
				CHANNELS 3 Zrotation Xrotation Yrotation
				End Site
				{
					OFFSET 0.204105 -0.089430 0.008415 
				}
			}
		}
	}
	JOINT LeftHip
	{
		OFFSET 0.052140 -0.069960 -0.075570 
		CHANNELS 3 Zrotation Xrotation Yrotation
		JOINT LeftKnee
		{
			OFFSET 0.000000 -0.402270 0.000000 
			CHANNELS 1 Zrotation
			JOINT LeftAnkle
			{
				OFFSET 0.000000 -0.404085 0.000000 
				CHANNELS 3 Zrotation Xrotation Yrotation
				End Site
				{
					OFFSET 0.204105 -0.089430 -0.008415 
				}
			}
		}
	}
}
MOTION
Frames: 19
Frame Time: 0.02
-3.06218 0.02813 1.02076 517.73975 -31.85298 -4.20152 41.17716 -1.61134 -5.44662 -11.48089 14.10533 -0.83079 -11.16602 -42.41645 -7.54631 49.75002 81.97958 1.3862 -3.10262 -32.24377 15.33558 1.1022 36.572 -88.54349 5.37011 0.4668 10.22911 -18.60709 28.65303 0.39774 -54.00429 -25.9746 -21.38431 7.59781 -9.1303 26.565 0.4758 -4.3485 -5.49446 -0.28389
-3.05807 0.02829 1.02379 517.30083 -31.73162 -4.28939 40.57973 -1.50777 -5.34128 -11.59848 14.31629 -0.83079 -13.85197 -38.4959 -5.61475 48.29416 82.51877 1.97956 -2.85516 -32.5518 15.42844 0.93959 36.97969 -88.99107 5.49101 0.34309 10.61832 -18.7735 29.23338 0.39611 -54.00783 -25.74819 -21.38579 7.77396 -9.30593 26.86041 0.47728 -4.26871 -5.52788 -0.20957
-3.05353 0.02851 1.02689 516.82952 -31.62908 -4.4188 39.94519 -1.3926 -5.22934 -11.68388 14.58214 -0.83079 -15.6746 -34.4918 -2.81755 45.6594 83.35353 2.5854 -2.48381 -32.75836 15.60868 0.71915 37.55673 -89.47763 5.56221 0.19428 11.07825 -18.90248 29.87528 0.39456 -54.01071 -25.5026 -21.38697 8.00003 -9.4438 27.1488 0.47914 -4.1782 -5.39863 -0.1627
-3.04918 0.02872 1.02998 516.36226 -31.53566 -4.5366 39.33695 -1.28165 -5.13369 -11.78644 14.82118 -0.83079 -17.90837 -30.5403 -0.46528 43.61094 84.20861 3.2207 -2.1439 -33.01406 15.75407 0.53205 38.07464 -89.97217 5.68125 0.0582 11.52908 -19.04756 30.52153 0.39325 -54.01392 -25.26463 -21.38828 8.22675 -9.59418 27.44665 0.48084 -4.08575 -5.33121 -0.10739
-3.04485 0.02887 1.03301 515.94004 -31.36736 -4.62336 38.68689 -1.17417 -4.97644 -11.87642 15.07127 -0.83079 -20.02423 -26.49921 2.17477 41.32672 84.44608 3.72642 -1.89724 -33.252 15.8816 0.31066 38.52348 -90.37523 5.70528 -0.08537 11.88396 -19.19918 31.03822 0.39075 -54.01876 -25.02499 -21.39039 8.3554 -9.76622 27.72002 0.48247 -4.02437 -5.31893 -0.03504
-3.04037 0.02915 1.03616 515.41298 -31.35902 -4.78482 38.11564 -1.05746 -4.94879 -11.9869 15.30794 -0.83079 -22.19005 -22.64214 4.39246 39.26052 85.99959 4.4896 -1.43578 -33.50431 16.06587 0.14905 39.15059 -90.96359 5.90591 -0.21791 12.45568 -19.32732 31.83497 0.39074 -54.01788 -24.7888 -21.38977 8.70026 -9.88412 28.04517 0.48434 -3.89461 -5.15365 -0.00357
-3.03555 0.02981 1.03957 514.64506 -31.79456 -5.14162 37.77456 -0.91359 -5.27113 -12.14625 15.52113 -0.83079 -24.77028 -19.23555 5.25058 38.10692 91.45438 6.06429 -0.3573 -33.8248 16.38802 0.16175 40.26801 -92.15486 6.6699 -0.32221 13.59859 -19.39884 33.40887 0.39767 -54.02088 -24.53991 -21.39049 9.62634 -9.85302 28.47414 0.48678 -3.58211 -4.57785 -0.09178
-3.0306 0.03059 1.04309 513.76552 -32.38897 -5.57215 37.51402 -0.76182 -5.72633 -12.32991 15.71351 -0.83079 -27.42381 -16.03627 5.6404 37.21394 98.16301 7.87852 0.9223 -34.16214 16.7635 0.23785 41.54924 -93.51283 7.60154 -0.41295 14.9577 -19.44773 35.25605 0.40705 -54.01525 -24.30006 -21.38694 10.76846 -9.77007 28.96133 0.48944 -3.20071 -3.85633 -0.21745
-3.0257 0.0313 1.04656 512.91114 -32.90672 -5.96977 37.21431 -0.61661 -6.12784 -12.51327 15.89797 -0.83079 -30.00863 -12.79393 6.22287 36.18911 104.06969 9.5118 2.07295 -34.49169 17.11242 0.28905 42.73186 -94.72536 8.41278 -0.50406 16.22575 -19.50728 36.96787 0.41525 -53.99981 -24.07509 -21.37943 11.81443 -9.71608 29.44909 0.49199 -2.84767 -3.22093 -0.31783
-3.0208 0.03207 1.05004 512.16418 -33.44523 -6.3672 36.92298 -0.45818 -6.50165 -12.65183 16.15883 -0.83079 -32.7159 -9.32509 6.92256 35.17444 110.95189 11.44367 3.38536 -34.82316 17.47393 0.32269 44.03086 -96.22741 9.40534 -0.61995 17.47082 -19.56429 38.73819 0.42383 -54.03926 -23.7719 -21.39633 12.85523 -9.63765 29.82658 0.49462 -2.50477 -2.50266 -0.45571
-3.0159 0.03274 1.05351 511.16652 -33.97634 -6.78085 36.63525 -0.32592 -6.96374 -12.88772 16.25352 -0.83079 -35.19202 -6.38749 7.2546 34.22206 116.11482 12.81831 4.40848 -35.14972 17.82113 0.40739 45.11361 -97.17323 10.06535 -0.68142 18.80806 -19.62134 40.43933 0.4321 -53.96619 -23.63067 -21.362 13.95537 -9.59878 30.44263 0.49711 -2.12701 -1.91608 -0.52191
-3.01098 0.03312 1.05701 509.51214 -34.46218 -7.23041 36.32623 -0.26475 -7.64634 -13.40496 15.90614 -0.83079 -37.05709 -4.79061 6.6842 33.33182 116.05712 12.52452 4.56942 -35.51221 18.11135 0.63141 45.64858 -96.47328 9.72409 -0.5894 20.39766 -19.68744 41.95685 0.43964 -53.54596 -23.95331 -21.1742 15.1838 -9.67793 31.74575 0.49928 -1.64908 -1.80162 -0.39847
-3.0061 0.0334 1.06047 507.60829 -34.93224 -7.69153 36.02078 -0.2308 -8.4113 -14.01574 15.39015 -0.83079 -38.68136 -3.73598 5.75527 32.50943 114.25332 11.67371 4.43419 -35.85928 18.38541 0.90358 45.94304 -95.21936 9.04928 -0.44426 22.06193 -19.75418 43.36529 0.44655 -53.01619 -24.42805 -20.93209 16.46072 -9.79967 33.27865 0.50128 -1.14285 -1.81209 -0.19786
-3.00124 0.03373 1.0639 505.81297 -35.40043 -8.14153 35.72093 -0.18649 -9.13288 -14.57206 14.94289 -0.83079 -40.39289 -2.48285 4.98763 31.69285 113.35918 11.12592 4.4433 -36.17935 18.66965 1.14338 46.2877 -94.26548 8.55642 -0.32747 23.6594 -19.81823 44.79475 0.45344 -52.56672 -24.82998 -20.73015 17.70426 -9.90459 34.67891 0.50333 -0.66262 -1.71817 -0.02146
-2.99619 0.03407 1.06757 504.03273 -35.91296 -8.62016 35.39175 -0.13347 -9.88519 -15.18079 14.52671 -0.83079 -42.20694 -1.03375 4.213 30.73184 112.02739 10.38064 4.41873 -36.64528 18.94495 1.42457 46.88634 -93.11804 7.946 -0.19208 25.40647 -19.89049 46.41933 0.46215 -52.00374 -25.27715 -20.48453 19.0045 -9.99672 36.20178 0.50559 -0.12251 -1.81933 0.1063
-2.99156 0.03435 1.07071 502.1651 -36.32654 -9.03934 35.12551 -0.10508 -10.59008 -15.70084 14.00796 -0.83079 -43.74074 -0.11987 3.37147 30.08208 111.16519 9.90537 4.39087 -36.8013 19.23292 1.63652 46.8984 -92.23442 7.493 -0.08344 26.85278 -19.94749 47.52649 0.46631 -51.63168 -25.62925 -20.28965 20.19378 -10.12662 37.52127 0.50727 0.29623 -1.54668 0.35602
-2.98797 0.03446 1.0725 500.10229 -36.47637 -9.30442 35.01468 -0.13874 -11.1529 -15.96524 13.23111 -0.83079 -44.63406 -0.54286 2.45509 30.29911 112.10523 10.35975 4.42734 -36.12484 19.57225 1.58889 45.33703 -92.2615 7.60748 -0.05761 27.48393 -19.95056 47.95437 0.46343 -51.9876 -26.01101 -20.49303 21.07701 -10.34749 38.23814 0.50781 0.39354 -0.20398 0.90866
-2.98482 0.03449 1.07375 497.96363 -36.52535 -9.50634 34.9701 -0.19609 -11.66222 -16.13477 12.36035 -0.83079 -45.2392 -1.48622 1.48312 30.82279 113.55111 11.09363 4.46823 -35.13383 19.92272 1.4789 43.19775 -92.56319 7.88159 -0.06115 27.8027 -19.94062 47.74794 0.45512 -52.51123 -26.24009 -20.71086 21.8436 -10.60555 38.7393 0.50742 0.36354 1.51719 1.58444
-2.98152 0.03456 1.0752 495.86985 -36.61596 -9.72847 34.90608 -0.24222 -12.19019 -16.33971 11.54278 -0.83079 -45.92751 -2.19592 0.52269 31.18743 114.71535 11.66867 4.50704 -34.27329 20.25914 1.43587 41.32706 -92.70826 8.04813 -0.05421 28.24102 -19.94427 47.33236 0.44561 -52.8386 -26.31057 -20.75237 22.65433 -10.84894 39.32897 0.50752 0.37795 3.05945 2.21377
